<?xml version="1.0" encoding="utf-8"?>
<!-- Generator: Adobe Illustrator 17.0.0, SVG Export Plug-In . SVG Version: 6.00 Build 0)  -->
<!DOCTYPE svg PUBLIC "-//W3C//DTD SVG 1.1//EN" "http://www.w3.org/Graphics/SVG/1.1/DTD/svg11.dtd">
<svg version="1.1" id="Capa_1" xmlns="http://www.w3.org/2000/svg" xmlns:xlink="http://www.w3.org/1999/xlink" x="0px" y="0px"
	 width="385.563px" height="63.5px" viewBox="0 0 385.563 63.5" enable-background="new 0 0 385.563 63.5" xml:space="preserve">
<g>
	<path fill="#00154C" d="M274.315,45.46c-0.142-0.572-0.139-0.959,0.291-1.22c0.555-0.337,0.635-0.853,0.634-1.46
		c-0.015-8.219,0.007-16.437-0.027-24.656c-0.006-1.525,0.506-2.65,1.784-3.505c3.137-2.1,6.241-4.25,9.36-6.375
		c0.962-0.655,1.998-1.219,2.887-1.961c1.848-1.543,4.251-1.171,5.977-0.075c0.845,0.537,1.5,1.236,2.061,2.043
		c0.162,0.233,0.339,0.459,0.466,0.71c1.267,2.51,3.466,2.447,5.861,1.697c0.406-0.127,0.79-0.327,1.262-0.346
		c-0.922,0.689-1.839,1.383-2.766,2.065c-2.205,1.621-4.419,3.229-6.618,4.857c-0.84,0.622-1.127,0.673-2.032,0.088
		c-0.838-0.541-1.646-1.129-2.475-1.701c-0.225,0.693-0.267,32.88-0.036,33.919c1.007-0.286,1.896-0.818,2.819-1.264
		c1.616-0.782,2.853-2.047,4.118-3.275c0.282-0.273,0.522-0.643,1.14-0.565c-0.066,0.422-0.082,0.822-0.194,1.193
		c-0.639,2.115-1.79,3.946-3.225,5.602c-2.575,2.97-5.821,4.889-9.601,5.849c-3.707,0.942-7.463,1.063-11.227,0.267
		c-4.644-0.982-8.527-3.296-11.756-6.74c-3.631-3.873-5.852-8.463-6.771-13.669c-0.395-2.236-0.39-4.499-0.156-6.774
		c0.29-2.809,0.954-5.517,1.945-8.142c1.516-4.015,3.856-7.49,7.128-10.289c3.771-3.226,8.145-5.19,13.03-6.009
		c0.613-0.103,1.286-0.154,1.878-0.012c1.266,0.304,2.359-0.118,3.458-0.598c0.376-0.164,0.722-0.328,1.205-0.066
		c-0.626,0.4-1.194,0.775-1.773,1.132c-3.111,1.923-6.071,4.055-8.806,6.484c-2.146,1.906-4.144,3.954-5.618,6.452
		c-1.459,2.472-2.344,5.146-2.761,7.974c-0.534,3.619-0.229,7.171,1.114,10.584c1.875,4.761,5.069,8.372,9.711,10.587
		c3.124,1.49,6.464,2.03,9.917,1.87c0.934-0.043,1.867-0.105,2.893-0.163c0-0.472,0-0.812,0-1.153
		c0-11.682-0.005-23.365,0.012-35.047c0.001-0.673-0.159-1.192-0.62-1.693c-0.632-0.688-1.18-1.453-1.764-2.184
		c-0.835,0.365-1.115,0.887-1.112,1.732c0.027,8.218,0.006,16.437,0.024,24.656c0.002,0.688-0.153,1.139-0.76,1.556
		c-3.112,2.136-6.185,4.328-9.272,6.5C275.412,44.695,274.9,45.05,274.315,45.46z"/>
	<path fill="#00154C" d="M30.293,57.026c-2.894-0.991-5.643-2.113-7.967-4.098c-1.117-0.954-2.53-1.236-3.944-1.397
		c-3.276-0.374-6.464,0.163-9.608,1.032c-1.908,0.527-3.8,1.111-5.7,1.668c-0.177,0.052-0.356,0.098-0.71,0.196
		c0.212-0.272,0.312-0.435,0.444-0.565c3.997-3.905,8.629-6.704,14.101-7.996c3.842-0.907,7.732-0.965,11.634-0.46
		c1.294,0.167,2.499,0.609,3.577,1.371c0.356,0.252,0.739,0.466,1.085,0.682c0.074-0.033,0.104-0.042,0.129-0.058
		c0.024-0.017,0.06-0.04,0.062-0.063c0.022-0.249,0.053-0.499,0.053-0.749c-0.007-12.91-0.016-25.82-0.029-38.73
		c0-0.084-0.065-0.169-0.109-0.274c-0.871-0.195-1.525,0.288-2.15,0.74c-0.583,0.422-1.124,0.916-1.618,1.44
		c-0.183,0.194-0.248,0.563-0.252,0.854c-0.043,3.054-0.089,6.108-0.084,9.162c0.008,4.628,0.042,9.257,0.101,13.885
		c0.008,0.623-0.216,0.97-0.715,1.293c-3.357,2.166-6.699,4.355-10.044,6.54c-0.474,0.31-0.936,0.639-1.411,0.946
		c-0.278,0.179-0.572,0.332-0.962,0.366c0.365-0.538,0.72-1.083,1.098-1.612c0.414-0.58,0.606-1.192,0.604-1.928
		c-0.022-7.841-0.005-15.681-0.029-23.522c-0.002-0.728,0.199-1.207,0.787-1.661c4.133-3.198,8.432-6.16,12.762-9.082
		c2.138-1.443,4.255-2.916,6.367-4.396c0.433-0.304,0.878-0.471,1.399-0.476c0.467-0.005,0.818,0.157,1.145,0.523
		c1.842,2.065,3.736,4.085,5.567,6.159c1.499,1.697,2.984,3.412,3.851,5.557c0.883,2.182,0.422,4.07-1.356,5.604
		c-2.073,1.789-4.105,3.625-6.181,5.41c-1.168,1.004-2.39,1.945-3.588,2.913c-0.167,0.135-0.341,0.263-0.662,0.51
		c0.364,0.093,0.575,0.166,0.793,0.198c1.338,0.195,2.69,0.316,4.011,0.59c0.946,0.196,1.872,0.539,2.767,0.912
		c1.049,0.437,1.782,1.245,2.349,2.234c1.194,2.086,1.541,4.379,1.666,6.717c0.099,1.854,0.078,3.714,0.151,5.57
		c0.02,0.517-0.193,0.808-0.587,1.077c-4.414,3.017-8.824,6.041-13.232,9.069C34.015,54.438,32.184,55.716,30.293,57.026z
		 M35.661,28.976c-0.075,0.04-0.151,0.079-0.226,0.119c0,0.338-0.002,0.677,0,1.015c0.018,2.234,0.042,4.468,0.055,6.702
		c0.021,3.335,0.018,6.671,0.06,10.006c0.021,1.673,0.787,2.444,2.523,2.59c0-0.286,0-0.565,0-0.844
		c0-5.444,0.003-10.888-0.007-16.332c-0.001-0.332,0.005-0.761-0.184-0.977C37.185,30.457,36.408,29.729,35.661,28.976z
		 M35.48,24.649c0.819-0.345,1.513-0.611,2.184-0.927c1.559-0.735,2.23-2.036,2.323-3.704c0.096-1.712-0.529-3.212-1.4-4.616
		c-0.86-1.387-1.796-2.728-2.705-4.085c-0.072-0.107-0.194-0.181-0.402-0.369C35.48,15.56,35.48,20.011,35.48,24.649z"/>
	<path fill="#00154C" d="M207.099,51.69c-1.083,0.513-2.16,1.025-3.238,1.534c-2.16,1.019-4.323,2.033-6.48,3.059
		c-0.357,0.17-0.671,0.253-1.068,0.063c-3.231-1.547-6.473-3.072-9.71-4.608c-0.139-0.066-0.265-0.162-0.46-0.284
		c0-0.289,0-0.601,0-0.913c0.001-7.398,0.001-14.795,0.003-22.193c0-1.042,0.014-1.017,0.968-1.427
		c2.772-1.19,5.557-2.354,8.289-3.629c0.994-0.464,1.855-0.551,2.845-0.09c0.703,0.327,1.471,0.514,2.298,0.794
		c0-2.44,0-4.784,0-7.18c-1.809-0.972-3.635-1.954-5.462-2.933c-0.97-0.52-1.947-1.026-2.911-1.556
		c-0.357-0.196-0.681-0.222-1.068-0.069c-0.817,0.323-1.651,0.606-2.482,0.893c-0.563,0.194-0.567,0.185-1.199-0.256
		c2.179-1.091,4.342-2.175,6.507-3.255c0.731-0.365,1.475-0.708,2.199-1.086c0.369-0.193,0.692-0.175,1.062,0.003
		c3.061,1.47,6.123,2.935,9.197,4.378c0.552,0.259,0.773,0.583,0.772,1.223c-0.022,12.245-0.016,24.491-0.018,36.736
		C207.142,51.142,207.116,51.391,207.099,51.69z M193.419,27.266c-0.034,0.347-0.068,0.531-0.068,0.716
		c-0.003,6.446,0.004,12.893-0.015,19.339c-0.002,0.537,0.201,0.791,0.666,0.977c1.718,0.69,3.426,1.406,5.142,2.103
		c0.125,0.051,0.281,0.027,0.459,0.041c0-6.886,0-13.704,0-20.59C197.584,29.009,195.568,28.165,193.419,27.266z"/>
	<path fill="#00154C" d="M315.846,29.526c-1.063,0.993-2.04,1.88-2.977,2.807c-0.17,0.169-0.245,0.505-0.246,0.764
		c-0.014,5.07-0.006,10.139-0.018,15.209c-0.001,0.415,0.164,0.715,0.412,1.013c0.703,0.843,1.396,1.694,2.15,2.611
		c-1.64,1.776-3.447,3.323-5.233,5.005c-0.473-0.473-0.919-0.901-1.344-1.348c-0.995-1.05-1.971-2.12-2.974-3.162
		c-0.396-0.411-0.547-0.852-0.546-1.433c0.017-11.368,0.014-22.735,0.008-34.103c0-0.486,0.053-0.903,0.439-1.275
		c2.196-2.119,4.37-4.26,6.553-6.392c0.126-0.123,0.268-0.229,0.54-0.46c0,7.164,0,14.162,0,21.387
		c1.561-1.185,2.71-2.505,3.992-3.671c1.301-1.184,2.54-2.435,3.885-3.732c0.465,0.455,0.908,0.88,1.34,1.316
		c1.218,1.228,2.42,2.474,3.654,3.687c0.461,0.453,0.624,0.941,0.622,1.589c-0.022,7.242-0.014,14.485-0.014,21.727
		c0,1.449-0.018,2.897,0.011,4.345c0.011,0.544-0.144,0.955-0.534,1.338c-1.637,1.61-3.25,3.243-4.875,4.864
		c-0.66,0.659-1.327,1.31-2.185,1.903c0-0.33,0-0.66,0-0.99c0-9.699-0.01-19.397,0.018-29.096c0.002-0.796-0.222-1.38-0.779-1.915
		C317.114,30.907,316.532,30.249,315.846,29.526z"/>
	<path fill="#00154C" d="M94.433,28.398c2.082-1.927,4.063-3.761,6.107-5.652c0.76,0.692,1.502,1.36,2.235,2.036
		c1.249,1.151,2.466,2.338,3.752,3.446c0.457,0.394,0.624,0.776,0.622,1.363c-0.019,6.076,0.003,12.152-0.029,18.227
		c-0.004,0.787,0.202,1.382,0.743,1.935c0.547,0.559,1.024,1.188,1.594,1.86c-1.519,1.776-3.021,3.532-4.557,5.327
		c-0.624-0.488-1.194-0.92-1.748-1.372c-0.999-0.816-1.969-1.668-2.989-2.456c-0.477-0.368-0.629-0.774-0.627-1.364
		c0.022-5.761,0.002-11.522,0.031-17.283c0.004-0.866-0.144-1.543-0.862-2.139c-0.937-0.776-1.759-1.691-2.694-2.608
		c-0.624,0.592-1.225,1.172-1.837,1.74c-0.438,0.406-0.872,0.821-1.343,1.186c-0.403,0.312-0.589,0.647-0.587,1.187
		c0.011,4.659,0.005,9.318-0.043,13.977c-0.008,0.762,0.203,1.326,0.76,1.815c0.637,0.559,1.248,1.147,1.957,1.802
		c-1.717,1.859-3.327,3.602-5.034,5.45c-1.182-1.11-2.263-2.204-3.431-3.197c-0.898-0.764-1.148-1.641-1.137-2.801
		c0.056-6.17,0.016-12.34,0.041-18.51c0.003-0.69-0.194-1.162-0.703-1.628c-0.669-0.612-1.232-1.338-1.881-2.061
		c1.735-1.9,3.574-3.915,5.458-5.977C90.286,24.589,92.314,26.452,94.433,28.398z"/>
	<path fill="#00154C" d="M60.815,33.22c3.232,1.688,6.426,3.355,9.723,5.077c0-2.519,0-4.895,0-7.318
		c-0.386-0.191-0.773-0.397-1.171-0.578c-2.291-1.037-4.58-2.077-6.881-3.089c-0.33-0.145-0.729-0.221-1.088-0.199
		c-1.343,0.084-2.682,0.223-4.096,0.348c0.818-0.513,1.597-1.016,2.389-1.498c1.907-1.16,3.83-2.295,5.724-3.475
		c0.461-0.287,0.812-0.258,1.289-0.039c3.056,1.404,6.122,2.78,9.026,4.496c0.745,0.44,1.01,0.918,1.004,1.781
		c-0.039,5.981-0.008,11.963-0.037,17.944c-0.004,0.762,0.24,1.289,0.773,1.81c1.187,1.161,2.312,2.385,3.433,3.554
		c-1.377,1.394-2.715,2.749-4.063,4.114c-1.147-0.464-1.872-1.461-2.79-2.214c-0.316-0.259-0.6-0.56-0.934-0.792
		c-1.233-0.854-2.48-0.784-3.628,0.197c-0.478,0.408-0.922,0.855-1.396,1.269c-1.378,1.204-3.013,1.496-4.682,0.95
		c-1.329-0.435-2.57-1.156-3.82-1.808c-0.891-0.464-1.71-1.066-2.601-1.529c-0.886-0.461-1.822-0.826-2.818-1.27
		c-0.011-0.191-0.042-0.467-0.042-0.744c-0.003-3.746,0.007-7.493-0.013-11.239c-0.003-0.555,0.151-0.919,0.615-1.254
		C56.769,36.243,58.778,34.731,60.815,33.22z M69.916,51.729c0.041-0.194,0.077-0.286,0.077-0.377
		c0.005-2.515-0.006-5.029,0.018-7.544c0.004-0.461-0.22-0.68-0.568-0.875c-2.547-1.427-5.091-2.861-7.639-4.286
		c-0.264-0.147-0.551-0.253-0.877-0.4c-0.04,0.218-0.081,0.337-0.081,0.456c-0.005,2.735,0.007,5.47-0.016,8.204
		c-0.004,0.508,0.25,0.71,0.649,0.898c2.497,1.178,4.987,2.373,7.482,3.556C69.239,51.493,69.538,51.584,69.916,51.729z"/>
	<path fill="#00154C" d="M139.57,51.679c0-8.215,0-16.391,0-24.592c3.242-1.608,6.482-3.205,9.708-4.828
		c0.387-0.195,0.654-0.053,0.963,0.1c1.293,0.646,2.59,1.285,3.88,1.936c1.906,0.962,3.807,1.933,5.745,2.917
		c0,8.212,0,16.416,0,24.688c-0.323,0.17-0.672,0.375-1.039,0.543c-2.827,1.296-5.659,2.581-8.485,3.881
		c-0.336,0.155-0.631,0.209-0.983,0.04C146.104,54.799,142.844,53.244,139.57,51.679z M153.311,51.65
		c0.04-0.307,0.07-0.43,0.07-0.552c0.004-6.548,0.001-13.095,0.014-19.643c0.001-0.479-0.181-0.727-0.605-0.933
		c-2.005-0.978-3.992-1.991-5.99-2.985c-0.15-0.074-0.325-0.096-0.598-0.173c0,0.445,0,0.785,0,1.126
		c-0.001,2.581-0.002,5.163-0.002,7.744c0,3.714,0.004,7.429-0.002,11.143c-0.001,0.49,0.024,0.885,0.578,1.144
		c1.851,0.864,3.673,1.787,5.509,2.683C152.587,51.35,152.901,51.472,153.311,51.65z"/>
	<path fill="#00154C" d="M16.261,9.158C12.83,5.965,5.15,3.924-0.167,6.93c0.69-0.616,1.353-1.267,2.075-1.842
		c3.073-2.447,6.61-3.833,10.45-4.507c2.996-0.526,6.008-0.586,9.026-0.247c0.427,0.048,0.852,0.194,1.257,0.349
		c1.677,0.64,3.347,1.308,5.19,1.232c0.579-0.024,1.156-0.099,1.904-0.166c-0.903,0.703-1.682,1.325-2.476,1.925
		c-1.731,1.309-3.471,2.606-5.205,3.912c-2.21,1.665-4.417,3.335-6.626,5.002c-0.176,0.133-0.346,0.274-0.529,0.396
		c-0.372,0.246-0.566,0.567-0.517,1.029c0.026,0.249,0.004,0.503,0.004,0.755c0,6.391-0.016,12.781,0.019,19.172
		c0.005,0.867-0.195,1.404-0.969,1.908c-3.345,2.181-6.633,4.451-9.943,6.686c-0.226,0.153-0.464,0.288-0.798,0.347
		c0.426-0.643,0.835-1.298,1.285-1.923c0.346-0.48,0.486-0.98,0.484-1.577c-0.019-6.8-0.004-13.6-0.038-20.399
		c-0.004-0.751,0.254-1.162,0.852-1.596c3.586-2.606,7.134-5.265,10.692-7.91C16.069,9.402,16.139,9.293,16.261,9.158z"/>
	<path fill="#00154C" d="M382.47,49.004c0.305,0.856,0.032,1.345-0.613,1.759c-2.646,1.699-5.271,3.43-7.904,5.148
		c-0.551,0.359-1.104,0.716-1.686,1.094c-3.386-1.651-6.741-3.288-10.129-4.94c0-0.352,0-0.665,0-0.977
		c0-7.461,0.009-14.921-0.015-22.382c-0.002-0.683,0.173-1.063,0.811-1.38c3.04-1.51,6.05-3.078,9.075-4.619
		c0.247-0.126,0.52-0.198,0.837-0.315c3.364,3.835,6.718,7.657,10.107,11.521c-0.44,0.317-0.811,0.602-1.199,0.862
		c-4.103,2.746-8.208,5.487-12.313,8.23c-0.026,0.017-0.053,0.034-0.08,0.051c-1.128,0.727-1.128,0.727-1.128,2.099
		c0,0.661-0.003,1.322,0,1.983c0.005,0.985,0.011,0.978,0.939,1.373c1.706,0.726,3.408,1.46,5.11,2.193
		c0.837,0.36,1.685,0.701,2.503,1.1c0.483,0.236,0.854,0.191,1.303-0.102c1.264-0.824,2.561-1.596,3.847-2.387
		C382.09,49.217,382.251,49.13,382.47,49.004z M376.225,36.301c-2.6-3.019-5.096-5.918-7.593-8.817
		c-0.065,0.015-0.129,0.031-0.194,0.046c-0.076,4.527-0.075,9.054-0.081,13.78C371.073,39.581,373.604,37.969,376.225,36.301z"/>
	<path fill="#00154C" d="M223.462,22.357c3.402,3.877,6.74,7.68,10.146,11.562c-0.488,0.345-0.93,0.674-1.387,0.98
		c-4.232,2.834-8.461,5.675-12.71,8.484c-0.484,0.32-0.671,0.657-0.654,1.22c0.035,1.129,0.01,2.26,0.01,3.419
		c0.288,0.144,0.531,0.278,0.784,0.389c2.592,1.13,5.191,2.246,7.776,3.393c0.48,0.213,0.838,0.218,1.299-0.089
		c1.176-0.784,2.4-1.498,3.606-2.236c0.26-0.159,0.528-0.306,0.808-0.468c0.249,0.836,0.017,1.343-0.682,1.789
		c-2.916,1.859-5.807,3.758-8.682,5.681c-0.594,0.397-1.07,0.456-1.718,0.13c-2.78-1.397-5.585-2.743-8.38-4.11
		c-0.279-0.136-0.55-0.289-0.864-0.455c0-0.334,0-0.647,0-0.959c0-7.461,0.011-14.921-0.018-22.382
		c-0.003-0.735,0.216-1.113,0.88-1.439c2.877-1.415,5.723-2.895,8.582-4.347C222.619,22.734,222.992,22.575,223.462,22.357z
		 M219.436,27.48c-0.063,0.019-0.126,0.038-0.189,0.057c-0.012,1.521-0.025,3.043-0.034,4.564c-0.009,1.508-0.028,3.016-0.017,4.524
		c0.011,1.511-0.084,3.027,0.034,4.653c2.671-1.707,5.197-3.322,7.792-4.98C224.441,33.298,221.938,30.389,219.436,27.48z"/>
	<path fill="#00154C" d="M135.847,49.984c-1.385,0.956-2.698,1.868-4.017,2.772c-1.661,1.137-3.335,2.256-4.985,3.408
		c-0.403,0.281-0.724,0.35-1.197,0.123c-3.628-1.742-7.272-3.45-10.909-5.173c-0.226-0.107-0.437-0.246-0.67-0.379
		c0-7.722,0-15.431,0-23.197c0.228-0.131,0.459-0.288,0.708-0.403c3.109-1.438,6.233-2.847,9.325-4.321
		c0.779-0.371,1.418-0.386,2.204-0.011c3.15,1.501,6.331,2.936,9.499,4.398c0.313,0.144,0.618,0.306,1.004,0.499
		c-0.149,0.158-0.248,0.305-0.384,0.399c-1.344,0.932-2.718,1.824-4.034,2.793c-0.67,0.494-1.279,0.51-2.011,0.194
		c-1.933-0.836-3.884-1.632-5.83-2.437c-0.92-0.381-1.846-0.748-2.864-1.16c-0.042,0.343-0.097,0.578-0.097,0.813
		c-0.005,6.203,0.001,12.406-0.012,18.608c-0.001,0.532,0.14,0.856,0.653,1.105c2.544,1.237,5.071,2.508,7.592,3.791
		c0.411,0.209,0.74,0.217,1.139-0.012c1.008-0.579,2.053-1.097,3.052-1.69C134.571,49.773,135.103,49.645,135.847,49.984z"/>
	<path fill="#00154C" d="M353.998,8.623c0,0.536,0,0.9,0,1.263c0,12.628,0.007,25.256-0.018,37.884
		c-0.002,0.777,0.19,1.31,0.852,1.721c0.585,0.362,1.121,0.804,1.765,1.274c-1.66,1.782-3.28,3.52-4.972,5.336
		c-0.272-0.247-0.553-0.477-0.806-0.735c-1.232-1.26-2.436-2.548-3.694-3.78c-0.382-0.374-0.481-0.754-0.48-1.247
		c0.011-3.59,0.006-7.18,0.006-10.77c0-7.589,0.008-15.179-0.014-22.768c-0.002-0.65,0.176-1.108,0.644-1.565
		c2.048-2.003,4.057-4.046,6.083-6.072C353.511,9.016,353.682,8.891,353.998,8.623z"/>
	<path fill="#00154C" d="M335.209,22.148c0.408,0.452,0.766,0.841,1.117,1.237c0.835,0.941,1.644,1.907,2.511,2.819
		c0.413,0.434,0.487,0.905,0.486,1.459c-0.009,6.109-0.005,12.217-0.005,18.326c0,0.63,0.016,1.26-0.004,1.889
		c-0.012,0.404,0.091,0.728,0.405,1.002c0.759,0.661,1.502,1.341,2.316,2.071c-1.658,1.847-3.16,3.52-4.728,5.266
		c-0.903-0.794-1.749-1.531-2.587-2.278c-0.658-0.586-1.287-1.204-1.962-1.77c-0.475-0.398-0.635-0.853-0.633-1.473
		c0.021-6.423,0.013-12.847,0.013-19.27c0-1.584,0.002-1.585-1.105-2.701c-0.286-0.289-0.586-0.565-0.957-0.921
		C331.789,25.916,333.47,24.063,335.209,22.148z"/>
	<path fill="#00154C" d="M340.183,13.339c-1.626,1.635-3.28,3.297-4.93,4.956c-1.653-1.697-3.308-3.394-4.955-5.085
		c1.576-1.539,3.273-3.198,4.955-4.841C336.823,9.953,338.492,11.634,340.183,13.339z"/>
</g>
</svg>
